<?xml version="1.0" encoding="UTF-8"?>
<svg version="1.1" xmlns="http://www.w3.org/2000/svg" width="512" height="512">
<path d="M0 0 C1.05489624 -0.00935994 1.05489624 -0.00935994 2.13110352 -0.01890898 C4.47576936 -0.03479977 6.81938988 -0.02225106 9.1640625 -0.00964355 C10.84977828 -0.01506645 12.53548932 -0.02219005 14.22119141 -0.03088379 C18.79145963 -0.04910026 23.36136618 -0.04205658 27.93164062 -0.02936745 C32.71745774 -0.01923109 37.50324416 -0.02863489 42.2890625 -0.03491211 C50.32557731 -0.04218666 58.36194503 -0.03260586 66.3984375 -0.0135498 C75.68597197 0.00821857 84.97315519 0.00116706 94.26068115 -0.02085543 C102.23877974 -0.0390149 110.21677267 -0.04156507 118.19488525 -0.03110075 C122.95810706 -0.02486883 127.72116384 -0.02402189 132.484375 -0.0372467 C136.96279317 -0.04881255 141.44075904 -0.04076615 145.91912842 -0.01766968 C147.56141408 -0.0123865 149.20373788 -0.01388971 150.8460083 -0.02272034 C153.09055875 -0.03367555 155.33366615 -0.01991476 157.578125 0 C158.83318848 0.0015081 160.08825195 0.0030162 161.38134766 0.00457001 C166.71409307 0.79228705 169.76251781 3.26316202 173.13568115 7.35340881 C176.05504598 13.07568996 175.31054899 19.72527522 175.24316406 25.98034668 C175.24203462 27.4493405 175.24267133 28.91833659 175.24493408 30.3873291 C175.24607841 34.36012804 175.22261521 38.33244066 175.19463825 42.30512691 C175.16957735 46.46243092 175.16727891 50.61974697 175.16253662 54.77711487 C175.15012058 62.64287522 175.11731765 70.50841232 175.07713866 78.37407452 C175.03237815 87.3317132 175.01042317 96.28936272 174.99035692 105.24708545 C174.94858372 123.66749491 174.87825846 142.08769677 174.7890625 160.50793457 C175.54536233 160.50516919 176.30166216 160.50240381 177.08088017 160.49955463 C195.49282632 160.43326932 213.90474862 160.38364158 232.31678867 160.35249805 C241.22075755 160.33703653 250.12464673 160.31596069 259.02856445 160.28161621 C266.79023208 160.25169196 274.55184197 160.23235437 282.31356567 160.22566909 C286.422435 160.22176195 290.53113918 160.21259458 294.63995552 160.1907444 C298.50999669 160.17033139 302.3798052 160.16411045 306.2498951 160.16861153 C307.66763067 160.16778847 309.0853743 160.16185142 310.5030632 160.15031815 C323.98086613 160.0460818 323.98086613 160.0460818 329.7890625 163.50793457 C334.17107479 168.2358952 334.91461655 170.87059267 334.93623352 177.237854 C334.93991021 177.93770046 334.9435869 178.63754693 334.947375 179.35860085 C334.95843178 181.71535223 334.96225905 184.07205955 334.96606445 186.42883301 C334.97232762 188.11395407 334.97897429 189.79907374 334.98597717 191.48419189 C335.00340102 196.07110209 335.01394281 200.65800184 335.0221827 205.24493694 C335.02733016 208.10974751 335.03340602 210.97455482 335.03969383 213.8393631 C335.05875019 222.79987947 335.07298011 231.76038758 335.0813058 240.72092032 C335.09107941 251.06942955 335.1174003 261.41772495 335.15780669 271.76615882 C335.187954 279.76113307 335.20277338 287.75604599 335.20608681 295.75107598 C335.20843898 300.52780907 335.21742088 305.30431384 335.24254799 310.08098602 C335.26580939 314.57571113 335.27006978 319.07005729 335.25978661 323.56482697 C335.25929065 325.21357991 335.26562859 326.86235138 335.27934265 328.51104736 C335.29703674 330.76451262 335.28996904 333.01661424 335.27680969 335.27008057 C335.27919805 336.53033932 335.2815864 337.79059807 335.28404713 339.08904648 C334.58000583 343.95190135 332.39317513 347.0542075 328.7890625 350.32043457 C324.87836872 352.642409 321.17182053 352.63198776 316.68939209 352.62818909 C314.8132019 352.63025108 314.8132019 352.63025108 312.89910889 352.63235474 C311.51574683 352.62881583 310.13238502 352.62518103 308.74902344 352.62145996 C307.29032391 352.62117785 305.83162425 352.6213363 304.3729248 352.62190247 C300.41459779 352.62218949 296.45630105 352.61630801 292.49798107 352.60932851 C288.36065512 352.60307926 284.22332848 352.60248993 280.08599854 352.6013031 C272.25211308 352.59819443 264.41824158 352.58998727 256.58436227 352.57995361 C247.66545684 352.56877809 238.74655074 352.56327839 229.82764006 352.55825818 C211.48143963 352.54780429 193.13525219 352.5302138 174.7890625 352.50793457 C174.79182788 353.2642344 174.79459326 354.02053423 174.79744244 354.79975224 C174.86372775 373.21169839 174.91335549 391.62362069 174.94449902 410.03566074 C174.95996054 418.93962962 174.98103638 427.8435188 175.01538086 436.74743652 C175.04530511 444.50910415 175.0646427 452.27071404 175.07132798 460.03243774 C175.07523512 464.14130707 175.08440249 468.25001125 175.10625267 472.35882759 C175.12666568 476.22886876 175.13288662 480.09867727 175.12838554 483.96876717 C175.1292086 485.38650274 175.13514565 486.80424637 175.14667892 488.22193527 C175.25091527 501.6997382 175.25091527 501.6997382 171.7890625 507.50793457 C167.06110187 511.88994686 164.4264044 512.63348862 158.05914307 512.65510559 C157.35929661 512.65878228 156.65945014 512.66245897 155.93839622 512.66624707 C153.58164484 512.67730385 151.22493752 512.68113112 148.86816406 512.68493652 C147.183043 512.69119969 145.49792333 512.69784636 143.81280518 512.70484924 C139.22589498 512.72227309 134.63899523 512.73281488 130.05206013 512.74105477 C127.18724956 512.74620223 124.32244225 512.75227809 121.45763397 512.7585659 C112.4971176 512.77762226 103.53660949 512.79185218 94.57607675 512.80017787 C84.22756752 512.80995149 73.87927212 512.83627237 63.53083825 512.87667876 C55.535864 512.90682608 47.54095108 512.92164545 39.54592109 512.92495888 C34.769188 512.92731105 29.99268324 512.93629295 25.21601105 512.96142006 C20.72128594 512.98468146 16.22693978 512.98894185 11.7321701 512.97865868 C10.08341716 512.97816272 8.43464569 512.98450066 6.78594971 512.99821472 C4.53248445 513.01590881 2.28038283 513.00884111 0.0269165 512.99568176 C-1.23334225 512.99807012 -2.493601 513.00045847 -3.79204941 513.0029192 C-8.65490428 512.2988779 -11.75721043 510.1120472 -15.0234375 506.50793457 C-17.34541193 502.59724079 -17.33499068 498.8906926 -17.33119202 494.40826416 C-17.33325401 492.53207397 -17.33325401 492.53207397 -17.33535767 490.61798096 C-17.33181876 489.2346189 -17.32818396 487.85125709 -17.32446289 486.46789551 C-17.32418078 485.00919598 -17.32433923 483.55049632 -17.3249054 482.09179688 C-17.32519242 478.13346986 -17.31931094 474.17517312 -17.31233144 470.21685314 C-17.30608219 466.07952719 -17.30549285 461.94220055 -17.30430603 457.80487061 C-17.30119736 449.97098515 -17.2929902 442.13711365 -17.28295654 434.30323434 C-17.27178102 425.38432891 -17.26628132 416.46542281 -17.26126111 407.54651213 C-17.25080722 389.2003117 -17.23321673 370.85412426 -17.2109375 352.50793457 C-18.34538724 352.51208264 -18.34538724 352.51208264 -19.50275517 352.51631451 C-37.91470132 352.58259982 -56.32662362 352.63222756 -74.73866367 352.66337109 C-83.64263255 352.67883261 -92.54652173 352.69990845 -101.45043945 352.73425293 C-109.21210708 352.76417718 -116.97371697 352.78351477 -124.73544067 352.79020005 C-128.84431 352.79410719 -132.95301418 352.80327456 -137.06183052 352.82512474 C-140.93187169 352.84553775 -144.8016802 352.85175869 -148.6717701 352.84725761 C-150.08950567 352.84808067 -151.5072493 352.85401772 -152.9249382 352.86555099 C-166.40274113 352.96978734 -166.40274113 352.96978734 -172.2109375 349.50793457 C-176.59294979 344.77997394 -177.33649155 342.14527647 -177.35810852 335.77801514 C-177.36178521 335.07816868 -177.3654619 334.37832222 -177.36925 333.65726829 C-177.38030678 331.30051691 -177.38413405 328.94380959 -177.38793945 326.58703613 C-177.39420262 324.90191507 -177.40084929 323.2167954 -177.40785217 321.53167725 C-177.42527602 316.94476705 -177.43581781 312.3578673 -177.4440577 307.7709322 C-177.44920516 304.90612163 -177.45528102 302.04131432 -177.46156883 299.17650604 C-177.48062519 290.21598967 -177.49485511 281.25548156 -177.5031808 272.29494882 C-177.51295441 261.94643959 -177.5392753 251.59814419 -177.57968169 241.24971032 C-177.609829 233.25473607 -177.62464838 225.25982315 -177.62796181 217.26479316 C-177.63031398 212.48806007 -177.63929588 207.71155531 -177.66442299 202.93488312 C-177.68768439 198.44015801 -177.69194478 193.94581185 -177.68166161 189.45104218 C-177.68116565 187.80228923 -177.68750359 186.15351776 -177.70121765 184.50482178 C-177.71891174 182.25135653 -177.71184404 179.9992549 -177.69868469 177.74578857 C-177.70107305 176.48552982 -177.7034614 175.22527107 -177.70592213 173.92682266 C-177.00188083 169.06396779 -174.81505013 165.96166164 -171.2109375 162.69543457 C-167.30024372 160.37346014 -163.59369553 160.38388139 -159.11126709 160.38768005 C-157.2350769 160.38561806 -157.2350769 160.38561806 -155.32098389 160.3835144 C-153.93762183 160.38705331 -152.55426002 160.39068811 -151.17089844 160.39440918 C-149.71219891 160.39469129 -148.25349925 160.39453284 -146.7947998 160.39396667 C-142.83647279 160.39367965 -138.87817605 160.39956113 -134.91985607 160.40654063 C-130.78253012 160.41278988 -126.64520348 160.41337922 -122.50787354 160.41456604 C-114.67398808 160.41767471 -106.84011658 160.42588187 -99.00623727 160.43591553 C-90.08733184 160.44709105 -81.16842574 160.45259075 -72.24951506 160.45761096 C-53.90331463 160.46806485 -35.55712719 160.48565534 -17.2109375 160.50793457 C-17.21462467 159.74648101 -17.21831184 158.98502745 -17.22211075 158.20049953 C-17.31048978 139.66339325 -17.37666073 121.12632907 -17.41818619 102.58905697 C-17.43880192 93.62452053 -17.46690357 84.66012482 -17.51269531 75.69567871 C-17.55259341 67.88127296 -17.57837751 60.06696914 -17.58729148 52.25246435 C-17.59250122 48.11559368 -17.60472519 43.97901459 -17.63385773 39.84223747 C-17.66107396 35.94588453 -17.66937008 32.04994239 -17.66336823 28.15350342 C-17.6644657 26.72608264 -17.6723829 25.29864766 -17.6877594 23.87130928 C-17.82872196 10.10739008 -17.82872196 10.10739008 -13.2109375 4.50793457 C-8.69994404 0.91702299 -5.73371249 0.00688971 0 0 Z " fill="#000000" transform="translate(177.2109375,-0.5079345703125)"/>
</svg>
